classDiagram
    Class01 <|-- AveryLongClass
    Class03 *-- Class04
    Class05 o-- Class06
    Class07 .. Class08
    Class09 --> C2
    Class09 --* C3
    Class09 --|> Class07
    Class07 : equals()
    Class07 : Object[] elementData
    Class01 : size()
    Class01 : int chimp
    Class01 : int gorilla
    Class08 <--> C2